<?xml version="1.0" encoding="utf-8"?>
<!-- Generator: Adobe Illustrator 22.1.0, SVG Export Plug-In . SVG Version: 6.00 Build 0)  -->
<svg version="1.1" xmlns="http://www.w3.org/2000/svg" xmlns:xlink="http://www.w3.org/1999/xlink" x="0px" y="0px"
	 viewBox="0 0 244 313.3" style="enable-background:new 0 0 244 313.3;" xml:space="preserve">
<style type="text/css">
	.st0{fill:#231815;}
</style>
<g id="カピバラ">
	<g>
		<path class="st0" d="M236.6,187.2c-2.3-76.2-106-100.5-106-100.5c-2.3-20.2-12.5-37-22-47.9c0,0,7.7-3.4,9.7-11.9
			c1.9-8.5-7.2-17.2-7.2-17.2l-15,15c0,0-14.4-5.5-30.2-3.4c-15.8,2.1-20.6,9.4-20.6,9.4l-27.2-10c0,0-4.8,15.6-1.7,21.8
			c3.1,6.2,9.2,6.9,9.2,6.9c-6.1,9.2-5.9,24.1-5.9,24.1C-16.7,140.7,54.5,217,54.5,217s9.8,31.2,14.2,40.3c4.4,9.1,14,6.7,14.5,2.1
			c0.6-4.6,3.4-27.3,3.4-27.3l5.2,2.8c0,0-1.5,10.9-4.2,21c-2.6,9.7,8.2,9,11,6.7c4.3-3.6,13.8-12.3,21-19.7
			c0,0,21.1-12.9,28.7-16.1c0,0,3.8-19.6,12.8-31.7c6.7-9,13.9-15.7,18-18.8c4-3,7.3,0.9,3.2,3.9c-3.9,2.9-12,11.2-17.3,18.6
			c-8.3,11.6-10.1,28.2-12.1,31.1c-1.9,2.7-28.8,12.9-32.3,20.8c-2.1,4.7-0.2,10.3,15.7,8.7c15.9-1.6,35.3-3.5,35.3-3.5
			C245.3,268.8,237.2,206.3,236.6,187.2z M104,92.5c-2.2,0.1-4.1,0.3-4.1,0.3s-1.6,19.9-2,22.6c-0.5,2.8-5.5,2.7-5.1-0.8
			c0.3-3.5,1.9-20.9,1.9-20.9s-2.5,0.4-5.1,0.6c-2.6,0.3-2.7-4.5-0.6-4.8c2.1-0.3,10.8-1.5,14.3-1.9C106.1,87.3,106.6,92.4,104,92.5
			z"/>
	</g>
</g>
<g id="文字">
	<g>
		<polygon class="st0" points="93.3,285.7 86.9,285.7 86.9,276 90.1,273.8 88.1,270.8 78.3,277.6 80.3,280.5 83.3,278.4 83.3,285.7 
			76.8,285.7 76.8,289.3 83.3,289.3 83.3,306.6 86.9,306.6 86.9,289.3 93.3,289.3 		"/>
		<rect x="92.9" y="293.2" class="st0" width="10.3" height="3.5"/>
		<polygon class="st0" points="117.7,296 114.3,297 115.4,300.5 108.3,300.5 113.5,271.5 110,270.8 104.5,301.7 106.3,304 
			116.5,304 117.3,306.5 120.6,305.4 		"/>
		<polygon class="st0" points="131.6,281.3 127.6,281.3 127.6,270.8 124.1,270.8 124.1,281.3 120.5,281.3 120.5,284.9 124.1,284.9 
			124.1,306.6 127.6,306.6 127.6,284.9 131.6,284.9 131.6,306.6 135.1,306.6 135.1,284.9 135.1,281.3 		"/>
		<polygon class="st0" points="142.6,303.1 142.6,289.3 150.3,289.3 150.3,285.7 142.6,285.7 142.6,270.8 139.1,270.8 139.1,303.1 
			139.1,303.1 139.1,306.6 152.2,306.6 152.2,303.1 		"/>
		<rect x="144" y="289" transform="matrix(0.1409 -0.99 0.99 0.1409 -150.5205 408.063)" class="st0" width="31.8" height="3.5"/>
		
			<rect x="168.3" y="274.9" transform="matrix(0.9877 -0.1563 0.1563 0.9877 -43.3565 30.1537)" class="st0" width="3.5" height="31.7"/>
		<rect x="171.5" y="270.8" class="st0" width="3.5" height="6.5"/>
		<rect x="176.1" y="270.8" class="st0" width="3.5" height="6.5"/>
		<rect x="182.6" y="270.9" class="st0" width="7.7" height="3.5"/>
		<polygon class="st0" points="180.1,281.3 180.1,284.9 189.5,284.9 185.2,306.7 188.9,307.4 193.8,283.9 192,281.3 		"/>
		<path class="st0" d="M147.7,270.9v9.5h9.5v-9.5H147.7z M153.7,276.9h-2.5v-2.5h2.5V276.9z"/>
	</g>
</g>
</svg>
