<?xml version="1.0" encoding="utf-8"?>
<!-- Generator: Adobe Illustrator 22.1.0, SVG Export Plug-In . SVG Version: 6.00 Build 0)  -->
<svg version="1.1" id="レイヤー_1" xmlns="http://www.w3.org/2000/svg" xmlns:xlink="http://www.w3.org/1999/xlink" x="0px"
	 y="0px" viewBox="0 0 244 313.3" style="enable-background:new 0 0 244 313.3;" xml:space="preserve">
<style type="text/css">
	.st0{fill:#FFFFFF;}
</style>
<g>
	<path class="st0" d="M236.6,187.2c-2.3-76.2-106-100.5-106-100.5c-2.3-20.2-12.5-37-22-47.9c0,0,7.7-3.4,9.7-11.9
		c1.9-8.5-7.2-17.2-7.2-17.2l-15,15c0,0-14.4-5.5-30.2-3.4s-20.6,9.4-20.6,9.4l-27.2-10c0,0-4.8,15.6-1.7,21.8s9.2,6.9,9.2,6.9
		c-6.1,9.2-5.9,24.1-5.9,24.1C-16.7,140.7,54.5,217,54.5,217s9.8,31.2,14.2,40.3c4.4,9.1,14,6.7,14.5,2.1c0.6-4.6,3.4-27.3,3.4-27.3
		l5.2,2.8c0,0-1.5,10.9-4.2,21c-2.6,9.7,8.2,9,11,6.7c4.3-3.6,13.8-12.3,21-19.7c0,0,21.1-12.9,28.7-16.1c0,0,3.8-19.6,12.8-31.7
		c6.7-9,13.9-15.7,18-18.8c4-3,7.3,0.9,3.2,3.9c-3.9,2.9-12,11.2-17.3,18.6c-8.3,11.6-10.1,28.2-12.1,31.1
		c-1.9,2.7-28.8,12.9-32.3,20.8c-2.1,4.7-0.2,10.3,15.7,8.7c15.9-1.6,35.3-3.5,35.3-3.5C245.3,268.8,237.2,206.3,236.6,187.2z
		 M104,92.5c-2.2,0.1-4.1,0.3-4.1,0.3s-1.6,19.9-2,22.6c-0.5,2.8-5.5,2.7-5.1-0.8c0.3-3.5,1.9-20.9,1.9-20.9s-2.5,0.4-5.1,0.6
		c-2.6,0.3-2.7-4.5-0.6-4.8s10.8-1.5,14.3-1.9C106.1,87.3,106.6,92.4,104,92.5z"/>
</g>
<g>
	<polygon class="st0" points="169.5,285.7 163.1,285.7 163.1,276 166.3,273.8 164.3,270.8 154.5,277.6 156.5,280.5 159.5,278.4 
		159.5,285.7 153,285.7 153,289.3 159.5,289.3 159.5,306.6 163.1,306.6 163.1,289.3 169.5,289.3 	"/>
	<rect x="169.1" y="293.2" class="st0" width="10.3" height="3.5"/>
	<polygon class="st0" points="193.9,296 190.5,297 191.6,300.5 184.5,300.5 189.7,271.5 186.2,270.8 180.7,301.7 182.5,304 
		192.7,304 193.5,306.5 196.8,305.4 	"/>
</g>
<g>
	<polygon class="st0" points="88.8,281.3 84.8,281.3 84.8,270.8 81.3,270.8 81.3,281.3 77.7,281.3 77.7,284.9 81.3,284.9 
		81.3,306.6 84.8,306.6 84.8,284.9 88.8,284.9 88.8,306.6 92.3,306.6 92.3,284.9 92.3,281.3 	"/>
	<polygon class="st0" points="99.8,303.1 99.8,289.3 107.5,289.3 107.5,285.7 99.8,285.7 99.8,270.8 96.3,270.8 96.3,303.1 
		96.3,303.1 96.3,306.6 109.4,306.6 109.4,303.1 	"/>
	
		<rect x="101.1" y="288.9" transform="matrix(0.1409 -0.99 0.99 0.1409 -187.2387 365.5995)" class="st0" width="31.8" height="3.5"/>
	
		<rect x="125.5" y="274.9" transform="matrix(0.9877 -0.1563 0.1563 0.9877 -43.8806 23.4573)" class="st0" width="3.5" height="31.7"/>
	<rect x="128.7" y="270.8" class="st0" width="3.5" height="6.5"/>
	<rect x="133.3" y="270.8" class="st0" width="3.5" height="6.5"/>
	<rect x="139.8" y="270.9" class="st0" width="7.7" height="3.5"/>
	<polygon class="st0" points="137.3,281.3 137.3,284.9 146.7,284.9 142.4,306.7 146.1,307.4 151,283.9 149.2,281.3 	"/>
	<path class="st0" d="M104.9,270.9v9.5h9.5v-9.5H104.9z M110.9,276.9h-2.5v-2.5h2.5V276.9z"/>
</g>
</svg>
