<?xml version="1.0" encoding="utf-8"?>
<!-- Generator: Adobe Illustrator 22.1.0, SVG Export Plug-In . SVG Version: 6.00 Build 0)  -->
<svg version="1.1" xmlns="http://www.w3.org/2000/svg" xmlns:xlink="http://www.w3.org/1999/xlink" x="0px" y="0px"
	 viewBox="0 0 595.3 595.3" style="enable-background:new 0 0 595.3 595.3;" xml:space="preserve">
<style type="text/css">
	.st0{fill:#FFE54A;}
	.st1{fill:#FFFFFF;stroke:#563415;stroke-width:18;stroke-miterlimit:10;}
	.st2{opacity:0.5;fill:url(#SVGID_1_);}
	.st3{opacity:0.5;fill:url(#SVGID_2_);}
</style>
<g id="レイヤー_1">
	<polygon class="st0" points="291.9,23.4 375.6,188.9 559.3,213.9 427.7,344.5 460.8,527 295.9,442.2 132.6,530 162.2,347 
		28.2,218.9 211.5,190.5 	"/>
</g>
<g id="レイヤー_3">
	<polygon class="st1" points="293.8,121.5 345.8,227.2 462.5,244.3 378,326.5 397.8,442.8 293.5,387.8 189.1,442.6 209.1,326.4 
		124.8,244 241.5,227.2 	"/>
</g>
<g id="レイヤー_4">
	
		<linearGradient id="SVGID_1_" gradientUnits="userSpaceOnUse" x1="24.0864" y1="220.3766" x2="201.471" y2="220.3766" gradientTransform="matrix(-1.0419 -3.050000e-02 2.980000e-02 -1.0182 506.8326 480.689)">
		<stop  offset="0.2936" style="stop-color:#FFFFFF"/>
		<stop  offset="0.3991" style="stop-color:#FFFEF1"/>
		<stop  offset="0.4541" style="stop-color:#FFFEED"/>
		<stop  offset="0.9266" style="stop-color:#FFF100"/>
	</linearGradient>
	<path class="st2" d="M439.5,196.2c-6.4-0.5-12.8-0.9-19.3-1.3l-99.6,95.8c-0.3,2.3-0.8,4.5-1.3,6.7c0.9,7,4.7,12.8,13.6,12.2
		c1.8-0.1,3.5-0.6,5.1-1.3l16.6-16c1.3-1.6,2.5-3.2,3.7-4.5c0.9-1,1.8-1.5,2.8-1.7l91.7-88.2C448.3,197.6,443.9,196.9,439.5,196.2z"
		/>
	
		<linearGradient id="SVGID_2_" gradientUnits="userSpaceOnUse" x1="120.0285" y1="466.3298" x2="376.5069" y2="466.3298" gradientTransform="matrix(-0.8175 0.1268 -0.1134 -0.8651 572.2383 577.3051)">
		<stop  offset="5.963300e-02" style="stop-color:#FFFFFF"/>
		<stop  offset="0.4266" style="stop-color:#FFFEF3"/>
		<stop  offset="0.8349" style="stop-color:#FFF100"/>
	</linearGradient>
	<path class="st3" d="M268.7,275c4.4-1,8.6-2.5,12.7-4.5l87.7-95.9c-0.5-1-1-2-1.5-3c-2.7-4.3-4.9-8.9-7-13.5
		c-2.9-5.1-5.8-10.2-7.8-15.6c-0.9-1.5-1.7-3.1-2.4-4.7L250.2,247.5c-1.5,6.3-1.4,12.2,0.9,17.5c1.8,2.3,3.6,4.7,5.4,7
		C260.4,273.4,264.5,274.4,268.7,275z"/>
</g>
</svg>
